{
  "asset": {
    "generator": "Khronos glTF Blender I/O v3.4.50",
    "version": "2.0"
  },
  "extensionsUsed": [
    "KHR_materials_specular",
    "KHR_materials_ior"
  ],
  "scene": 0,
  "scenes": [
    {
      "extras": {
        "renderman": {}
      },
      "name": "Scene",
      "nodes": [
        4,
        5,
        6,
        7
      ]
    }
  ],
  "nodes": [
    {
      "mesh": 0,
      "name": "Back_Wall.001",
      "rotation": [
        0.70710688829422,
        0,
        0,
        0.7071066498756409
      ],
      "scale": [
        0.5467957854270935,
        0.5467957258224487,
        0.5467957258224487
      ],
      "translation": [
        0,
        1.7745742797851562,
        2.9062094688415527
      ]
    },
    {
      "mesh": 1,
      "name": "Back_Wall.002",
      "rotation": [
        0.7053593993186951,
        0.04968107491731644,
        -0.049681082367897034,
        0.7053592801094055
      ],
      "scale": [
        0.546795666217804,
        0.5467956066131592,
        0.5467957258224487
      ],
      "translation": [
        1.2698465585708618,
        1.7442868947982788,
        12.505477905273438
      ]
    },
    {
      "mesh": 2,
      "name": "Back_Wall.003",
      "rotation": [
        0.7019643187522888,
        0.0851249024271965,
        -0.0851249024271965,
        0.7019640803337097
      ],
      "scale": [
        0.5467957854270935,
        0.546795666217804,
        0.5467957258224487
      ],
      "translation": [
        3.5070605278015137,
        1.7212010622024536,
        21.903362274169922
      ]
    },
    {
      "camera": 0,
      "name": "Camera.001",
      "rotation": [
        0.004629178903996944,
        0.9944334626197815,
        -0.030257683247327805,
        0.10082215815782547
      ],
      "translation": [
        0.9079285860061646,
        0.5576139688491821,
        -8.059843063354492
      ]
    },
    {
      "children": [
        0,
        1,
        2,
        3
      ],
      "name": "Empty",
      "rotation": [
        0.0005108261248096824,
        0.00029755057767033577,
        -0.00029785477090626955,
        1
      ]
    },
    {
      "mesh": 3,
      "name": "Sphere",
      "scale": [
        -0.2572910487651825,
        -0.2572910487651825,
        -0.2572910487651825
      ],
      "translation": [
        -0.27911806106567383,
        0.8313425183296204,
        -2.278759717941284
      ]
    },
    {
      "mesh": 4,
      "name": "Plane"
    },
    {
      "mesh": 5,
      "name": "Plane.002",
      "rotation": [
        0,
        0,
        -0.7071068286895752,
        0.7071068286895752
      ],
      "scale": [
        0.7819161415100098,
        0.7819161415100098,
        0.7819161415100098
      ],
      "translation": [
        6.842911243438721,
        1.6707836389541626,
        -11.107643127441406
      ]
    }
  ],
  "cameras": [
    {
      "name": "Camera.001",
      "perspective": {
        "aspectRatio": 2,
        "yfov": 0.35618586893480636,
        "zfar": 1000,
        "znear": 1.8199999332427979
      },
      "type": "perspective"
    }
  ],
  "animations": [
    {
      "channels": [
        {
          "sampler": 0,
          "target": {
            "node": 4,
            "path": "translation"
          }
        },
        {
          "sampler": 1,
          "target": {
            "node": 4,
            "path": "rotation"
          }
        },
        {
          "sampler": 2,
          "target": {
            "node": 4,
            "path": "scale"
          }
        }
      ],
      "name": "Action",
      "samplers": [
        {
          "input": 23,
          "interpolation": "LINEAR",
          "output": 24
        },
        {
          "input": 23,
          "interpolation": "LINEAR",
          "output": 25
        },
        {
          "input": 23,
          "interpolation": "LINEAR",
          "output": 26
        }
      ]
    },
    {
      "channels": [
        {
          "sampler": 0,
          "target": {
            "node": 3,
            "path": "translation"
          }
        },
        {
          "sampler": 1,
          "target": {
            "node": 3,
            "path": "rotation"
          }
        },
        {
          "sampler": 2,
          "target": {
            "node": 3,
            "path": "scale"
          }
        }
      ],
      "name": "Action.002",
      "samplers": [
        {
          "input": 23,
          "interpolation": "LINEAR",
          "output": 27
        },
        {
          "input": 23,
          "interpolation": "LINEAR",
          "output": 28
        },
        {
          "input": 23,
          "interpolation": "LINEAR",
          "output": 29
        }
      ]
    },
    {
      "channels": [
        {
          "sampler": 0,
          "target": {
            "node": 7,
            "path": "translation"
          }
        },
        {
          "sampler": 1,
          "target": {
            "node": 7,
            "path": "rotation"
          }
        },
        {
          "sampler": 2,
          "target": {
            "node": 7,
            "path": "scale"
          }
        }
      ],
      "name": "Action.003",
      "samplers": [
        {
          "input": 23,
          "interpolation": "LINEAR",
          "output": 30
        },
        {
          "input": 23,
          "interpolation": "LINEAR",
          "output": 31
        },
        {
          "input": 23,
          "interpolation": "LINEAR",
          "output": 32
        }
      ]
    }
  ],
  "materials": [
    {
      "doubleSided": true,
      "extensions": {
        "KHR_materials_specular": {
          "specularColorFactor": [
            0,
            0,
            0
          ]
        },
        "KHR_materials_ior": {
          "ior": 1.4500000476837158
        }
      },
      "name": "Baked",
      "pbrMetallicRoughness": {
        "baseColorTexture": {
          "index": 0
        },
        "metallicFactor": 0
      }
    },
    {
      "doubleSided": true,
      "extensions": {
        "KHR_materials_specular": {
          "specularColorFactor": [
            0.4850504532593605,
            0.4850504532593605,
            0.4850504532593605
          ]
        },
        "KHR_materials_ior": {
          "ior": 1.4500000476837158
        }
      },
      "name": "blackout",
      "pbrMetallicRoughness": {
        "baseColorFactor": [
          0,
          0,
          0,
          1
        ],
        "metallicFactor": 0,
        "roughnessFactor": 0.9727272987365723
      }
    }
  ],
  "meshes": [
    {
      "name": "Circle",
      "primitives": [
        {
          "attributes": {
            "POSITION": 0,
            "TEXCOORD_0": 1,
            "NORMAL": 2
          },
          "indices": 3,
          "material": 0
        }
      ]
    },
    {
      "name": "Circle.001",
      "primitives": [
        {
          "attributes": {
            "POSITION": 4,
            "TEXCOORD_0": 5,
            "NORMAL": 6
          },
          "indices": 3,
          "material": 0
        }
      ]
    },
    {
      "name": "Circle.002",
      "primitives": [
        {
          "attributes": {
            "POSITION": 7,
            "TEXCOORD_0": 8,
            "NORMAL": 9
          },
          "indices": 10,
          "material": 0
        }
      ]
    },
    {
      "name": "Sphere.001",
      "primitives": [
        {
          "attributes": {
            "POSITION": 11,
            "TEXCOORD_0": 12,
            "NORMAL": 13
          },
          "indices": 14
        }
      ]
    },
    {
      "name": "Plane.006",
      "primitives": [
        {
          "attributes": {
            "POSITION": 15,
            "TEXCOORD_0": 16,
            "NORMAL": 17
          },
          "indices": 18,
          "material": 1
        }
      ]
    },
    {
      "name": "Plane.002",
      "primitives": [
        {
          "attributes": {
            "POSITION": 19,
            "TEXCOORD_0": 20,
            "NORMAL": 21
          },
          "indices": 22
        }
      ]
    }
  ],
  "textures": [
    {
      "sampler": 0,
      "source": 0
    }
  ],
  "images": [
    {
      "name": "light_bake",
      "uri": "spirited_away_train_img0.png"
    }
  ],
  "accessors": [
    {
      "bufferView": 0,
      "componentType": 5126,
      "count": 76495,
      "max": [
        2.7432548999786377,
        3.328141689300537,
        3.973036766052246
      ],
      "min": [
        -2.7432544231414795,
        -17.5758113861084,
        -3.0059471130371094
      ],
      "type": "VEC3"
    },
    {
      "bufferView": 1,
      "componentType": 5126,
      "count": 76495,
      "type": "VEC2"
    },
    {
      "bufferView": 2,
      "componentType": 5126,
      "count": 76495,
      "type": "VEC3"
    },
    {
      "bufferView": 3,
      "componentType": 5125,
      "count": 257136,
      "type": "SCALAR"
    },
    {
      "bufferView": 4,
      "componentType": 5126,
      "count": 76495,
      "max": [
        2.7432548999786377,
        3.328141689300537,
        3.973036766052246
      ],
      "min": [
        -2.7432544231414795,
        -17.5758113861084,
        -3.0059471130371094
      ],
      "type": "VEC3"
    },
    {
      "bufferView": 5,
      "componentType": 5126,
      "count": 76495,
      "type": "VEC2"
    },
    {
      "bufferView": 6,
      "componentType": 5126,
      "count": 76495,
      "type": "VEC3"
    },
    {
      "bufferView": 7,
      "componentType": 5126,
      "count": 76495,
      "max": [
        2.7432548999786377,
        3.328141689300537,
        3.973036766052246
      ],
      "min": [
        -2.7432544231414795,
        -17.5758113861084,
        -3.0059471130371094
      ],
      "type": "VEC3"
    },
    {
      "bufferView": 8,
      "componentType": 5126,
      "count": 76495,
      "type": "VEC2"
    },
    {
      "bufferView": 9,
      "componentType": 5126,
      "count": 76495,
      "type": "VEC3"
    },
    {
      "bufferView": 10,
      "componentType": 5125,
      "count": 257136,
      "type": "SCALAR"
    },
    {
      "bufferView": 11,
      "componentType": 5126,
      "count": 559,
      "max": [
        0.9999997019767761,
        1,
        0.9999993443489075
      ],
      "min": [
        -0.9999990463256836,
        -1,
        -1
      ],
      "type": "VEC3"
    },
    {
      "bufferView": 12,
      "componentType": 5126,
      "count": 559,
      "type": "VEC2"
    },
    {
      "bufferView": 13,
      "componentType": 5126,
      "count": 559,
      "type": "VEC3"
    },
    {
      "bufferView": 14,
      "componentType": 5123,
      "count": 2880,
      "type": "SCALAR"
    },
    {
      "bufferView": 15,
      "componentType": 5126,
      "count": 4,
      "max": [
        2.6529548168182373,
        4.461978435516357,
        -6.919625282287598
      ],
      "min": [
        -2.6529548168182373,
        -0.5526294708251953,
        -8.653518676757812
      ],
      "type": "VEC3"
    },
    {
      "bufferView": 16,
      "componentType": 5126,
      "count": 4,
      "type": "VEC2"
    },
    {
      "bufferView": 17,
      "componentType": 5126,
      "count": 4,
      "type": "VEC3"
    },
    {
      "bufferView": 18,
      "componentType": 5123,
      "count": 6,
      "type": "SCALAR"
    },
    {
      "bufferView": 19,
      "componentType": 5126,
      "count": 24,
      "max": [
        3.0667219161987305,
        0.4742905795574188,
        4.2259697914123535
      ],
      "min": [
        -8.623665809631348,
        -0.161965474486351,
        -3.2271907329559326
      ],
      "type": "VEC3"
    },
    {
      "bufferView": 20,
      "componentType": 5126,
      "count": 24,
      "type": "VEC2"
    },
    {
      "bufferView": 21,
      "componentType": 5126,
      "count": 24,
      "type": "VEC3"
    },
    {
      "bufferView": 22,
      "componentType": 5123,
      "count": 36,
      "type": "SCALAR"
    },
    {
      "bufferView": 23,
      "componentType": 5126,
      "count": 100,
      "max": [
        4.166666666666667
      ],
      "min": [
        0.041666666666666664
      ],
      "type": "SCALAR"
    },
    {
      "bufferView": 24,
      "componentType": 5126,
      "count": 100,
      "type": "VEC3"
    },
    {
      "bufferView": 25,
      "componentType": 5126,
      "count": 100,
      "type": "VEC4"
    },
    {
      "bufferView": 26,
      "componentType": 5126,
      "count": 100,
      "type": "VEC3"
    },
    {
      "bufferView": 27,
      "componentType": 5126,
      "count": 100,
      "type": "VEC3"
    },
    {
      "bufferView": 28,
      "componentType": 5126,
      "count": 100,
      "type": "VEC4"
    },
    {
      "bufferView": 29,
      "componentType": 5126,
      "count": 100,
      "type": "VEC3"
    },
    {
      "bufferView": 30,
      "componentType": 5126,
      "count": 100,
      "type": "VEC3"
    },
    {
      "bufferView": 31,
      "componentType": 5126,
      "count": 100,
      "type": "VEC4"
    },
    {
      "bufferView": 32,
      "componentType": 5126,
      "count": 100,
      "type": "VEC3"
    }
  ],
  "bufferViews": [
    {
      "buffer": 0,
      "byteLength": 917940,
      "byteOffset": 0,
      "target": 34962
    },
    {
      "buffer": 0,
      "byteLength": 611960,
      "byteOffset": 917940,
      "target": 34962
    },
    {
      "buffer": 0,
      "byteLength": 917940,
      "byteOffset": 1529900,
      "target": 34962
    },
    {
      "buffer": 0,
      "byteLength": 1028544,
      "byteOffset": 2447840,
      "target": 34963
    },
    {
      "buffer": 0,
      "byteLength": 917940,
      "byteOffset": 3476384,
      "target": 34962
    },
    {
      "buffer": 0,
      "byteLength": 611960,
      "byteOffset": 4394324,
      "target": 34962
    },
    {
      "buffer": 0,
      "byteLength": 917940,
      "byteOffset": 5006284,
      "target": 34962
    },
    {
      "buffer": 0,
      "byteLength": 917940,
      "byteOffset": 5924224,
      "target": 34962
    },
    {
      "buffer": 0,
      "byteLength": 611960,
      "byteOffset": 6842164,
      "target": 34962
    },
    {
      "buffer": 0,
      "byteLength": 917940,
      "byteOffset": 7454124,
      "target": 34962
    },
    {
      "buffer": 0,
      "byteLength": 1028544,
      "byteOffset": 8372064,
      "target": 34963
    },
    {
      "buffer": 0,
      "byteLength": 6708,
      "byteOffset": 9400608,
      "target": 34962
    },
    {
      "buffer": 0,
      "byteLength": 4472,
      "byteOffset": 9407316,
      "target": 34962
    },
    {
      "buffer": 0,
      "byteLength": 6708,
      "byteOffset": 9411788,
      "target": 34962
    },
    {
      "buffer": 0,
      "byteLength": 5760,
      "byteOffset": 9418496,
      "target": 34963
    },
    {
      "buffer": 0,
      "byteLength": 48,
      "byteOffset": 9424256,
      "target": 34962
    },
    {
      "buffer": 0,
      "byteLength": 32,
      "byteOffset": 9424304,
      "target": 34962
    },
    {
      "buffer": 0,
      "byteLength": 48,
      "byteOffset": 9424336,
      "target": 34962
    },
    {
      "buffer": 0,
      "byteLength": 12,
      "byteOffset": 9424384,
      "target": 34963
    },
    {
      "buffer": 0,
      "byteLength": 288,
      "byteOffset": 9424396,
      "target": 34962
    },
    {
      "buffer": 0,
      "byteLength": 192,
      "byteOffset": 9424684,
      "target": 34962
    },
    {
      "buffer": 0,
      "byteLength": 288,
      "byteOffset": 9424876,
      "target": 34962
    },
    {
      "buffer": 0,
      "byteLength": 72,
      "byteOffset": 9425164,
      "target": 34963
    },
    {
      "buffer": 0,
      "byteLength": 400,
      "byteOffset": 9425236
    },
    {
      "buffer": 0,
      "byteLength": 1200,
      "byteOffset": 9425636
    },
    {
      "buffer": 0,
      "byteLength": 1600,
      "byteOffset": 9426836
    },
    {
      "buffer": 0,
      "byteLength": 1200,
      "byteOffset": 9428436
    },
    {
      "buffer": 0,
      "byteLength": 1200,
      "byteOffset": 9429636
    },
    {
      "buffer": 0,
      "byteLength": 1600,
      "byteOffset": 9430836
    },
    {
      "buffer": 0,
      "byteLength": 1200,
      "byteOffset": 9432436
    },
    {
      "buffer": 0,
      "byteLength": 1200,
      "byteOffset": 9433636
    },
    {
      "buffer": 0,
      "byteLength": 1600,
      "byteOffset": 9434836
    },
    {
      "buffer": 0,
      "byteLength": 1200,
      "byteOffset": 9436436
    }
  ],
  "samplers": [
    {
      "magFilter": 9729,
      "minFilter": 9987
    }
  ],
  "buffers": [
    {
      "uri": "spirited_away_train_data.bin",
      "byteLength": 9437636
    }
  ]
}